<?xml version="1.0" encoding="UTF-8"?>
<svg width="600px" height="600px" viewBox="0 0 600 600" version="1.1" xmlns="http://www.w3.org/2000/svg" xmlns:xlink="http://www.w3.org/1999/xlink">
    <title>assets/icon</title>
    <g id="/assets/icon" stroke="none" fill="none" fill-rule="evenodd" stroke-width="1">
        <g id="Layer_1" transform="translate(0, 214)" fill="#231F20">
            <g id="Group" transform="translate(0, 22)" fill-rule="nonzero">
                <g>
                    <path d="M3.52422907,144.438262 C1.20144173,142.117647 0,138.99682 0,135.235824 L0,14.3237944 C1.20144173,14.0037096 2.72326792,13.6836248 4.7256708,13.36354 C6.72807369,12.963434 8.81057269,12.8033916 10.9731678,12.8033916 C15.2182619,12.8033916 18.4221065,13.6036036 20.5847016,15.2040276 C22.7472968,16.8044515 23.7885463,19.6852146 23.7885463,23.7662957 L23.7885463,128.193959 L83.4601522,128.193959 C84.1810172,129.234234 84.8217861,130.514573 85.4625551,132.114997 C86.0232279,133.715421 86.3436123,135.555909 86.3436123,137.63646 C86.3436123,140.99735 85.5426512,143.558029 83.9407289,145.318495 C82.3388066,147.078961 80.1762115,147.959194 77.5330396,147.959194 L12.8153785,147.959194 C8.97076492,147.959194 5.92711254,146.758877 3.60432519,144.438262 L3.52422907,144.438262 Z" id="Path"></path>
                    <path d="M146.335603,41.7710652 C159.951942,41.7710652 170.845014,44.7318495 178.934722,50.6534181 C187.024429,56.5749868 191.029235,65.9374669 191.029235,78.6608373 L191.029235,129.874404 C191.029235,133.235294 190.228274,135.875994 188.706448,137.716481 C187.184622,139.556969 185.102123,141.237414 182.458951,142.917859 C178.614337,145.078431 173.728474,146.99894 167.721266,148.599364 C161.714057,150.199788 154.745695,151 146.816179,151 C132.559071,151 121.505807,148.199258 113.496195,142.677795 C105.486584,137.076312 101.481778,128.914149 101.481778,118.031267 C101.481778,107.148384 104.605527,100.986751 110.853024,95.8653948 C117.100521,90.7440382 126.071286,87.6232114 137.845414,86.4228935 L168.442131,83.382088 L168.442131,78.5808161 C168.442131,72.0990991 166.359632,67.4578696 162.194634,64.4970853 C158.029636,61.536301 152.182619,60.0959194 144.73368,60.0959194 C137.284742,60.0959194 133.19984,60.8961314 127.753304,62.4965554 C122.306768,64.0969793 117.501001,65.9374669 113.255907,68.018018 C111.814177,66.8177001 110.532639,65.4573397 109.49139,63.6968733 C108.45014,62.0164282 107.969563,60.1759406 107.969563,58.0953895 C107.969563,56.0148384 108.610332,53.5341812 109.811774,51.9337573 C111.093312,50.3333333 113.015619,48.8929518 115.658791,47.772655 C119.743692,45.6921039 124.469363,44.2517223 129.755707,43.2914679 C135.04205,42.3312136 140.648779,41.8510864 146.495795,41.8510864 L146.335603,41.7710652 Z M146.816179,132.995231 C151.942331,132.995231 156.427713,132.515103 160.272327,131.474828 C164.11694,130.434552 166.760112,129.314255 168.442131,128.193959 L168.442131,100.266561 L144.493392,102.667197 C137.765318,103.387387 132.719263,104.90779 129.27513,107.148384 C125.911093,109.388977 124.229075,112.90991 124.229075,117.551139 C124.229075,122.192369 126.071286,126.193429 129.755707,128.834128 C133.440128,131.554849 139.126952,132.915209 146.896276,132.915209 L146.816179,132.995231 Z" id="Shape"></path>
                    <path d="M243.171806,51.2135665 L284.74169,51.2135665 C285.302363,52.0937997 285.863036,53.2941176 286.423708,54.8145204 C286.904285,56.3349232 287.22467,58.1754107 287.22467,60.1759406 C287.22467,66.3375729 284.421306,69.3783784 278.894674,69.3783784 L243.892671,69.3783784 L243.892671,147.239004 C242.851422,147.63911 241.409692,148.119237 239.567481,148.439322 C237.72527,148.839428 235.722867,148.99947 233.480176,148.99947 C229.235082,148.99947 226.031237,148.199258 224.028835,146.598834 C221.946336,144.99841 220.985182,142.277689 220.985182,138.436672 L220.985182,38.1701113 C220.985182,31.4483307 221.946336,25.6067833 223.948738,20.8055114 C225.951141,16.0042395 228.754505,12.0031797 232.438927,8.96237414 C236.123348,5.92156863 240.528634,3.6009539 245.734882,2.16057234 C250.941129,0.720190779 256.70805,0 263.035643,0 C272.1666,0 279.134962,1.20031797 283.940729,3.5209327 C288.746496,5.84154743 291.229475,9.20243773 291.229475,13.4435612 C291.229475,17.6846847 290.828995,17.2845787 290.028034,18.8049815 C289.227072,20.3253842 288.265919,21.6857446 287.064477,22.8860625 C284.261113,21.6857446 281.057269,20.7254902 277.372847,19.845257 C273.688426,18.9650238 270.004005,18.5649179 266.159391,18.5649179 C257.909491,18.5649179 252.062475,20.1653418 248.538246,23.3661897 C245.014017,26.5670376 243.251902,31.8484367 243.251902,39.2103869 L243.251902,51.2935877 L243.171806,51.2135665 Z" id="Path"></path>
                    <path d="M556.267521,147.319025 C555.226272,147.719131 553.784541,148.199258 551.942331,148.519343 C550.10012,148.919449 548.097717,149.079491 545.855026,149.079491 C541.609932,149.079491 538.486183,148.279279 536.403684,146.678855 C534.321185,145.078431 533.360032,142.357711 533.360032,138.516693 L533.360032,66.4175941 C533.360032,62.736619 534.080897,59.7758347 535.522627,57.5352411 C536.964357,55.2946476 539.367241,53.1340753 542.571085,51.0535241 C546.816179,48.4128246 552.262715,46.2522523 558.830597,44.4917859 C565.398478,42.7313196 572.687225,41.8510864 580.61674,41.8510864 C593.512215,41.8510864 600,45.5320615 600,52.8139905 C600,60.0959194 599.679616,56.254902 599.118943,57.7753047 C598.55827,59.2957075 597.837405,60.6560678 597.11654,61.8563858 C595.67481,61.536301 593.832599,61.2962374 591.589908,60.9761526 C589.427313,60.6560678 587.024429,60.5760466 584.54145,60.5760466 C578.694433,60.5760466 573.327994,61.2162162 568.442131,62.4165342 C563.636364,63.6968733 559.471366,65.2172761 556.107329,67.1377848 L556.107329,147.399046 L556.267521,147.319025 Z" id="Path"></path>
                </g>
                <g transform="translate(302.6031, 25.7668)">
                    <path d="M161.553865,109.228935 C147.937525,109.228935 137.044453,106.268151 128.954746,100.346582 C120.865038,94.4250132 116.860232,85.0625331 116.860232,72.3391627 L116.860232,21.1255962 C116.860232,17.7647059 117.661193,15.1240064 119.18302,13.2835188 C120.704846,11.4430313 122.787345,9.76258612 125.430517,8.08214096 C129.27513,5.92156863 134.160993,4.00105988 140.168202,2.40063593 C146.17541,0.800211977 153.143773,0 161.073288,0 C175.330396,0 186.38366,2.80074192 194.393272,8.32220456 C202.402883,13.9236884 206.407689,22.0858506 206.407689,32.9687334 C206.407689,43.8516163 203.283941,50.0132485 197.036444,55.1346052 C190.788947,60.2559618 181.818182,63.3767886 170.044053,64.5771065 L139.447337,67.617912 L139.447337,72.4191839 C139.447337,78.9009009 141.529836,83.5421304 145.694834,86.5029147 C149.859832,89.463699 155.706848,90.9040806 163.155787,90.9040806 C170.604726,90.9040806 174.689628,90.1038686 180.136163,88.5034446 C185.582699,86.9030207 190.388466,85.0625331 194.63356,82.981982 C196.07529,84.1822999 197.356828,85.5426603 198.398078,87.3031267 C199.439327,88.9835718 199.919904,90.8240594 199.919904,92.9046105 C199.919904,94.9851616 199.279135,97.4658188 198.077693,99.0662427 C196.796155,100.666667 194.873849,102.107048 192.230677,103.227345 C188.145775,105.307896 183.420104,106.748278 178.133761,107.708532 C172.847417,108.668786 167.240689,109.148914 161.393672,109.148914 L161.553865,109.228935 Z M161.073288,18.0047695 C155.947137,18.0047695 151.461754,18.4848967 147.617141,19.5251722 C143.772527,20.5654478 141.129355,21.6857446 139.447337,22.8060413 L139.447337,50.7334393 L163.396075,48.3328034 C170.124149,47.6126126 175.170204,46.0922099 178.614337,43.8516163 C181.978374,41.6110228 183.660392,38.0900901 183.660392,33.4488606 C183.660392,28.8076312 181.818182,24.8065713 178.133761,22.1658718 C174.449339,19.445151 168.762515,18.0847907 160.993192,18.0847907 L161.073288,18.0047695 Z" id="Shape"></path>
                    <path d="M44.8538246,16.0042395 C58.4701642,16.0042395 69.3632359,18.9650238 77.4529435,24.8865925 C85.5426512,30.8081611 89.5474569,40.1706412 89.5474569,52.8940117 L89.5474569,104.107578 C89.5474569,107.468468 88.7464958,110.109168 87.2246696,111.949656 C85.7028434,113.790143 83.6203444,115.470588 80.9771726,117.151033 C77.1325591,119.311606 72.246696,121.232114 66.2394874,122.832538 C60.2322787,124.432962 53.2639167,125.233174 45.3344013,125.233174 C31.0772928,125.233174 20.0240288,122.432432 12.0144173,116.91097 C4.00480577,111.309486 0,103.147324 0,92.2644409 C0,81.381558 3.1237485,75.2199258 9.37124549,70.0985692 C15.6187425,64.9772125 24.5895074,61.8563858 36.3636364,60.6560678 L66.9603524,57.6152623 L66.9603524,52.8139905 C66.9603524,46.3322734 64.8778534,41.691044 60.7128554,38.7302597 C56.5478574,35.7694754 50.700841,34.3290938 43.2519023,34.3290938 C35.8029636,34.3290938 31.7180617,35.1293058 26.2715258,36.7297297 C20.82499,38.3301537 16.0192231,40.1706412 11.774129,42.2511924 C10.3323989,41.0508744 9.05086103,39.690514 8.00961153,37.9300477 C6.96836203,36.2496025 6.48778534,34.409115 6.48778534,32.3285639 C6.48778534,30.2480127 7.12855427,27.7673556 8.329996,26.1669316 C9.61153384,24.5665077 11.5338406,23.1261261 14.1770124,22.0058294 C18.2619143,19.9252782 22.9875851,18.4848967 28.2739287,17.5246423 C33.5602723,16.5643879 39.1670004,16.0842607 45.0140168,16.0842607 L44.8538246,16.0042395 Z M45.3344013,107.228405 C50.4605527,107.228405 54.9459351,106.748278 58.7905487,105.708002 C62.6351622,104.667727 65.278334,103.54743 66.9603524,102.427133 L66.9603524,74.499735 L43.0116139,76.900371 C36.2835402,77.6205617 31.237485,79.1409645 27.793352,81.381558 C24.4293152,83.6221516 22.7472968,87.1430843 22.7472968,91.7843137 C22.7472968,96.4255432 24.5895074,100.426603 28.2739287,103.067303 C31.95835,105.788023 37.6451742,107.148384 45.4144974,107.148384 L45.3344013,107.228405 Z" id="Shape"></path>
                    <polygon id="Path" points="156.267521 66.0174881 60.2322787 75.1399046 62.1545855 58.0153683 161.633961 48.4928458"></polygon>
                </g>
            </g>
            <path d="M529.07219,40.1627983 C524.899363,37.1706097 523.936402,31.4224579 527.066023,27.3278841 L527.066023,27.3278841 C530.115397,23.2333103 535.973404,22.3671504 540.146231,25.359339 L540.146231,25.359339 C544.319059,28.3515276 545.282019,34.0996793 542.152398,38.1942531 L542.152398,38.1942531 C540.467218,40.3990237 537.979571,41.7376343 535.411677,41.9738598 L535.411677,41.9738598 C533.245017,42.1313434 530.917863,41.5801507 528.991943,40.2415401 L529.07219,40.1627983 Z M385.510883,33.7847121 C382.702249,29.5326546 383.905949,23.7845029 388.319516,21.0285397 L388.319516,21.0285397 C392.652837,18.2725766 398.510844,19.4537037 401.319478,23.7845029 L401.319478,23.7845029 C404.128112,28.0365604 402.924412,33.7847121 398.510844,36.5406752 L398.510844,36.5406752 C397.146651,37.4068351 395.702211,37.8792859 394.25777,37.9580277 L394.25777,37.9580277 C390.88741,38.2729949 387.51705,36.7769007 385.510883,33.7847121 L385.510883,33.7847121 Z M498.417959,24.4931791 C493.522911,22.8396012 490.874771,17.6426421 492.559951,12.8393921 L492.559951,12.8393921 C494.245132,8.03614199 499.541412,5.43766244 504.516706,7.09124034 L504.516706,7.09124034 C509.411754,8.74481823 512.059894,13.9417773 510.374714,18.7450274 L510.374714,18.7450274 C509.171014,22.2884086 505.8809,24.6506628 502.350046,24.96563 L502.350046,24.96563 C501.066099,25.0443718 499.782152,24.96563 498.498205,24.4931791 L498.417959,24.4931791 Z M418.412021,16.2252897 C417.047827,11.3432978 419.936708,6.22508049 424.912002,4.88646981 L424.912002,4.88646981 C429.887296,3.54785913 435.10333,6.3825641 436.467523,11.264556 L436.467523,11.264556 C437.831717,16.1465479 434.942836,21.2647652 429.967542,22.6033758 L429.967542,22.6033758 C429.405816,22.7608594 428.844089,22.8396012 428.282362,22.9183431 L428.282362,22.9183431 C423.868795,23.3120521 419.615721,20.5560889 418.412021,16.2252897 Z M464.393367,18.4300602 C459.177333,18.2725766 455.084753,14.0992609 455.245246,8.98104365 L455.245246,8.98104365 C455.405739,3.86282635 459.73906,-0.153005681 464.874847,0.0044779284 L464.874847,0.0044779284 C470.090881,0.161961538 474.183462,4.41401898 474.022969,9.45349448 L474.022969,9.45349448 C473.862475,14.1780027 470.171128,17.9576094 465.516821,18.3513184 L465.516821,18.3513184 C465.115587,18.3513184 464.794601,18.3513184 464.393367,18.3513184 L464.393367,18.4300602 Z" id="Shape" fill-rule="nonzero"></path>
        </g>
    </g>
</svg>