<?xml version="1.0" encoding="UTF-8"?>
<svg width="960px" height="960px" viewBox="0 0 960 960" version="1.1" xmlns="http://www.w3.org/2000/svg" xmlns:xlink="http://www.w3.org/1999/xlink">
    <title>Lafer Wireless Human Presence Sensor</title>
    <g id="Lafer-Wireless-Human-Presence-Sensor" stroke="none" fill="none" fill-rule="nonzero">
        <path d="M820.10187,142.741891 L820.72,145.069957 L820.727391,145.093334 L820.85517,145.57272 L821.417116,147.763797 C829.662722,180.095025 833.905169,204.879606 833.998428,223.071251 L834,223.681957 C834,240.236364 831.518995,260.178933 826.647552,283.781186 L826.511,284.432957 L835.299335,338.757953 C835.856561,342.202624 836.6705,345.600324 837.734134,348.922693 L838.060708,349.917116 L911.008126,566.56637 C947.835469,676.543915 888.535514,795.55279 778.55797,832.380132 L746.704,843.045957 L746.470807,843.741479 C738.22648,867.804835 718.957845,886.629763 694.471749,894.216297 L693.671448,894.459692 L509.944501,949.292928 C473.301619,960.228982 434.211521,959.853748 397.785326,948.216289 L86.5420906,848.780138 C58.2215866,839.732289 39,813.412657 39,783.681957 L39,771.195541 C39,748.370446 54.4574873,728.442766 76.5654876,722.766388 L258.713,675.997957 L187.081,441.252957 L186.742096,440.78911 C183.112732,435.751582 180.304853,430.148288 178.442149,424.186555 L178.231423,423.497084 L156.30782,350.137334 C154.57126,344.326538 153.511123,338.340237 153.144771,332.297162 L153.124,331.938957 L152.692178,330.585327 C149.552955,320.63825 147.130006,310.477052 145.442797,300.17966 L145.195236,298.634039 C126.552472,179.506776 208.011253,67.8221021 327.138566,49.1793301 L607.494648,5.30562357 C703.148788,-9.66559946 794.585799,49.6682353 820.10187,142.741891 Z M78.9986103,775.719056 L78.9986103,783.681957 C78.9986103,796.010939 86.9709729,806.925391 98.7151633,810.677431 L409.958399,910.113582 C438.715921,919.30105 469.576525,919.597287 498.505116,910.96356 L682.232062,856.130324 C693.256493,852.840087 702.210369,845.00907 707.002829,834.797669 L641.867,854.98 L641.946774,855.237925 L586.92029,872.205135 C584.509424,872.939005 582.095233,873.622602 579.678844,874.256525 L552.363219,882.714529 C528.019499,890.257653 503.328378,892.917935 479.344557,891.251079 L455.251186,894.41931 C447.919755,895.383972 440.466235,894.742809 433.407252,892.540262 L91.5943006,785.887628 C86.1877244,784.200665 81.7173095,780.524043 78.9986103,775.719056 Z M206.694273,175.299906 L206.369939,175.861436 C186.736604,209.894233 178.166566,250.609878 184.714242,292.449531 C186.361686,302.976699 188.949345,313.335024 192.446164,323.400191 C192.812796,324.455496 193,325.564778 193,326.681957 L193,327.516682 C193,331.298555 193.550083,335.060319 194.632974,338.683839 L216.556578,412.043589 C217.410622,414.901352 218.962016,417.501837 221.071068,419.610889 C222.229969,420.76979 223.086266,422.195769 223.564607,423.763345 L306.564607,695.763345 C306.810135,696.567968 306.949547,697.373642 306.992377,698.167487 L321.232847,744.951141 C342.752231,814.400061 402.467462,861.473158 470.14555,870.241221 C414.395373,851.140908 368.29799,806.454409 349.825395,745.769338 L205.614786,272.017217 C202.865886,262.986693 200.921546,253.730617 199.804518,244.3573 C196.983343,220.683957 199.483986,197.6029 206.363377,176.312382 L206.694273,175.299906 Z M363.016261,84.0499759 L333.323024,88.6983443 C326.206534,89.812036 319.254625,91.3322454 312.487248,93.2316188 C251.773112,114.383761 211.742484,175.518806 219.663996,241.990627 C220.641395,250.192279 222.342693,258.291345 224.74798,266.193054 L368.958589,739.945175 C395.599076,827.462918 486.453916,877.791669 574.182648,855.020724 L718.907,810.171 L765.856674,794.450235 C853.995821,764.935751 901.926643,670.217264 873.949299,581.940669 L872.988434,579.000246 L800.151939,362.681334 C798.22717,356.964915 796.775844,351.099867 795.812639,345.145507 L789.049154,303.328077 C777.884482,315.383006 762.674787,324.621326 742.912446,330.933039 L741.706321,331.313141 L738.016518,332.229007 C719.277408,336.842538 696.056928,341.999463 667.397415,348.002157 L658.285764,349.901206 C656.562083,350.25878 654.816744,350.61995 653.047259,350.985255 L637.664139,354.142011 L580.486,365.734652 C564.46126,369.009112 554.376592,371.148004 547.3358,372.786655 C462.046069,392.636706 393.310556,356.560572 355.545601,271.739096 C336.71611,229.447365 330.259716,179.922054 338.327228,138.979052 C342.616812,117.209216 350.780891,98.743932 362.474071,84.6952371 L363.016261,84.0499759 Z M290.914,714.031 L97.6564268,762.947346 C96.5856256,763.218379 95.9372852,764.30615 96.2083178,765.376951 C96.3789627,766.051138 96.8875771,766.588279 97.551459,766.795423 L375.773879,853.611646 C341.929408,829.116029 315.446378,793.849667 302.128939,750.870661 L301.833237,749.907779 L290.914,714.031 Z M680.390594,588.740964 C691.991644,584.287738 706.370004,593.635009 712.50556,609.618678 C718.641115,625.602347 714.210457,642.169724 702.609406,646.62295 C691.008356,651.076176 676.629996,641.728905 670.49444,625.745236 C664.358885,609.761567 668.789543,593.19419 680.390594,588.740964 Z M216.536941,331.780682 C216.626618,331.99847 216.707156,332.21991 216.778343,332.444423 L237.221657,396.919491 C238.79224,401.872869 236.305008,407.203424 231.5,409.181957 C227.18233,410.959821 222.240923,408.900901 220.463059,404.583231 C220.373382,404.365444 220.292844,404.144004 220.221657,403.919491 L199.778343,339.444423 C198.20776,334.491045 200.694992,329.160489 205.5,327.181957 C209.81767,325.404093 214.759077,327.463012 216.536941,331.780682 Z M613.679706,44.8245438 L413.394569,76.1676224 C384.429812,82.0935793 365.213287,105.983645 357.949923,142.845557 C350.704107,179.618412 356.616808,224.973198 373.816511,263.604363 C407.753781,339.82872 467.032824,370.941584 542.80223,353.307262 L546.808411,352.393589 C554.803658,350.602821 565.969066,348.272792 582.969121,344.817766 L631.769257,334.932603 C636.535449,333.960969 641.010651,333.044545 645.44337,332.132179 L655.932622,329.963249 L664.594363,328.155066 C692.874789,322.222846 715.736973,317.133259 734.065704,312.604093 L736.283953,312.052138 L736.991405,311.828806 C768.65514,301.677306 784.788616,283.808366 790.876053,256.888935 L791.059271,256.062042 C792.965317,243.929831 793.939992,233.404283 794,224.510926 L794,223.681957 C794,209.159484 790.058732,186.335601 782.122429,155.561454 L781.527719,153.326828 C761.383452,79.8476261 689.196336,33.0051253 613.679706,44.8245438 Z" id="Shape" fill="#000000"></path>
    </g>
</svg>